<svg xmlns="http://www.w3.org/2000/svg" viewBox="0 0 96 96">
  <defs>
    <linearGradient id="gGold" x1="0" y1="0" x2="0" y2="1">
      <stop offset="0" stop-color="#FFE8A3"/>
      <stop offset="1" stop-color="#E0B44E"/>
    </linearGradient>
    <linearGradient id="gRobe" x1="0" y1="0" x2="1" y2="1">
      <stop offset="0" stop-color="#FFF7D4"/>
      <stop offset="1" stop-color="#F6D77A"/>
    </linearGradient>
    <filter id="shadow" x="-20%" y="-20%" width="140%" height="140%">
      <feDropShadow dx="0" dy="3" stdDeviation="3" flood-color="#5B2D6C" flood-opacity=".12"/>
    </filter>
  </defs>
  <g filter="url(#shadow)">
    <ellipse cx="48" cy="84" rx="19" ry="5.5" fill="#EADAF6"/>
    <circle cx="48" cy="16" r="4" fill="url(#gGold)" stroke="#653170" stroke-width="2.2"/>
    <path d="M48 22c8.1 0 14.6 5.6 14.6 12.8 0 2.4-.8 4.8-2.1 6.7 7.8 4 13.2 11.5 13.2 20.9 0 6.9-3.3 12.8-8.4 16.7l3.7 8.4H26.9l3.8-8.4c-5.2-3.9-8.4-9.9-8.4-16.7 0-9.4 5.4-16.9 13.2-20.9-1.4-1.9-2.1-4.3-2.1-6.7C33.4 27.6 39.9 22 48 22Z" fill="url(#gRobe)" stroke="#653170" stroke-width="3" stroke-linejoin="round"/>
    <path d="M37 62c3.4-8.3 8.2-12.3 11-12.3 2.8 0 7.6 4 11 12.3" fill="none" stroke="#653170" stroke-width="3" stroke-linecap="round"/>
    <path d="M35.8 72.4C40 75.3 43.8 76.6 48 76.6s8-1.3 12.2-4.2" fill="none" stroke="#653170" stroke-width="3" stroke-linecap="round"/>
    <path d="M33 88h30" fill="none" stroke="#653170" stroke-width="3" stroke-linecap="round"/>
  </g>
</svg>
