<svg xmlns="http://www.w3.org/2000/svg" viewBox="0 0 96 96">
  <defs>
    <filter id="shadow" x="-20%" y="-20%" width="140%" height="140%">
      <feDropShadow dx="0" dy="3" stdDeviation="3" flood-color="#5B2D6C" flood-opacity=".12"/>
    </filter>
  </defs>
  <g filter="url(#shadow)">
    <ellipse cx="48" cy="83" rx="18" ry="5" fill="#EADAF6"/>
    <circle cx="48" cy="47" r="7" fill="#FFF0F5" stroke="#653170" stroke-width="2.4"/>
    <path d="M48 18c5.4 7.4 5.4 13.1 0 19.7-5.4-6.6-5.4-12.3 0-19.7Zm0 24c7.4 5.4 13.1 5.4 19.7 0-6.6-5.4-12.3-5.4-19.7 0Zm0 0c-5.4 7.4-5.4 13.1 0 19.7 5.4-6.6 5.4-12.3 0-19.7Zm0 0c-7.4-5.4-13.1-5.4-19.7 0 6.6 5.4 12.3 5.4 19.7 0Z" fill="#FFF9FB" stroke="#653170" stroke-width="3" stroke-linejoin="round"/>
    <circle cx="48" cy="47" r="2.8" fill="#F7B9CD"/>
  </g>
</svg>
