<svg xmlns="http://www.w3.org/2000/svg" viewBox="0 0 96 96">
  <defs>
    <linearGradient id="gWater" x1="0" y1="0" x2="0" y2="1">
      <stop offset="0" stop-color="#E4FAFB"/>
      <stop offset="1" stop-color="#9EDFE3"/>
    </linearGradient>
    <filter id="shadow" x="-20%" y="-20%" width="140%" height="140%">
      <feDropShadow dx="0" dy="3" stdDeviation="3" flood-color="#5B2D6C" flood-opacity=".12"/>
    </filter>
  </defs>
  <g filter="url(#shadow)">
    <ellipse cx="48" cy="83" rx="18" ry="5" fill="#EADAF6"/>
    <path d="M29 51.5C35 43.5 39.7 37.7 48 29c8.3 8.7 13 14.5 19 22.5 0 10.1-8.5 18.2-19 18.2S29 61.6 29 51.5Z" fill="url(#gWater)" stroke="#653170" stroke-width="3" stroke-linejoin="round"/>
    <path d="M33.5 61c4 2.7 8.7 4 14.5 4s10.5-1.3 14.5-4" fill="none" stroke="#653170" stroke-width="3" stroke-linecap="round"/>
    <path d="M39 48c2.3 1.8 4.7 2.7 9 2.7S54.7 49.8 57 48" fill="none" stroke="#7BB8C9" stroke-width="2.4" stroke-linecap="round"/>
  </g>
</svg>
